# xmcd
#
# Track frame offsets: 
#        183
#        33033
#        100495
#        139608
#        169645
#        200508
#        215258
#        252895
#
# Disc length: 3786 seconds
#
# Revision: 10
# Processed by: cddbd v1.5.2PL0 Copyright (c) Steve Scherf et al.
# Submitted via: ExactAudioCopy v0.99pb5
#
DISCID=660ec808
DTITLE=Guarneri Quartet - Beethoven - String Quartets Op. 127 and Op. 13
DTITLE=5
DYEAR=1987
DGENRE=Classical
TTITLE0=01. String Quartet in E flat major Op. 127 - 1. Maestoso-alleg
TTITLE0=ro
TTITLE1=02. String Quartet in E flat major Op. 127 - 2. Adagio, ma non
TTITLE1=troppo e molto cantabile
TTITLE2=03. String Quartet in E flat major Op. 127 - 3. Scherzando viv
TTITLE2=ace
TTITLE3=04. String Quartet in E flat major Op. 127 - 4. Finale
TTITLE4=05. String Quartet in F major Op. 135 - 1. Allegretto
TTITLE5=06. String Quartet in F major Op. 135 - 2. Vivace
TTITLE6=07. String Quartet in F major Op. 135 - 3. Lento assai, cantat
TTITLE6=e e tranquillo
TTITLE7=08. String Quartet in F major Op. 135 - 4. Der schwer gefasste
TTITLE7=Entschluss, grave-allegro
EXTD=
EXTT0=
EXTT1=
EXTT2=
EXTT3=
EXTT4=
EXTT5=
EXTT6=
EXTT7=
PLAYORDER=
